<mxfile host="app.diagrams.net" modified="2020-08-03T00:32:42.223Z" agent="5.0 (Windows NT 10.0; Win64; x64) AppleWebKit/537.36 (KHTML, like Gecko) Chrome/84.0.4147.105 Safari/537.36" etag="_7igtuNppZWnBIpKw01j" version="13.5.4" type="github">
  <diagram id="ObFMUwsZoE6x6Ov3aSio" name="Page-1">
    <mxGraphModel dx="865" dy="483" grid="1" gridSize="10" guides="1" tooltips="1" connect="1" arrows="1" fold="1" page="1" pageScale="1" pageWidth="850" pageHeight="1100" math="0" shadow="0">
      <root>
        <mxCell id="0" />
        <mxCell id="1" parent="0" />
        <mxCell id="63LmWP-ijqn6lB4bOJ2F-1" value="" style="rounded=0;whiteSpace=wrap;html=1;" parent="1" vertex="1">
          <mxGeometry x="150" y="260" width="520" height="180" as="geometry" />
        </mxCell>
        <mxCell id="63LmWP-ijqn6lB4bOJ2F-2" value="Alt" style="rounded=0;whiteSpace=wrap;html=1;" parent="1" vertex="1">
          <mxGeometry x="150" y="260" width="50" height="30" as="geometry" />
        </mxCell>
        <mxCell id="63LmWP-ijqn6lB4bOJ2F-3" value="User" style="shape=umlActor;verticalLabelPosition=bottom;labelBackgroundColor=#ffffff;verticalAlign=top;html=1;outlineConnect=0;" parent="1" vertex="1">
          <mxGeometry x="180" y="70" width="30" height="60" as="geometry" />
        </mxCell>
        <mxCell id="63LmWP-ijqn6lB4bOJ2F-4" value="GUI" style="shape=umlActor;verticalLabelPosition=bottom;labelBackgroundColor=#ffffff;verticalAlign=top;html=1;outlineConnect=0;" parent="1" vertex="1">
          <mxGeometry x="620" y="70" width="30" height="60" as="geometry" />
        </mxCell>
        <mxCell id="63LmWP-ijqn6lB4bOJ2F-5" value="" style="endArrow=none;dashed=1;html=1;exitX=0.5;exitY=0;exitDx=0;exitDy=0;" parent="1" source="63LmWP-ijqn6lB4bOJ2F-15" edge="1">
          <mxGeometry width="50" height="50" relative="1" as="geometry">
            <mxPoint x="430" y="340" as="sourcePoint" />
            <mxPoint x="345" y="150" as="targetPoint" />
          </mxGeometry>
        </mxCell>
        <mxCell id="63LmWP-ijqn6lB4bOJ2F-8" value="login()" style="text;html=1;strokeColor=none;fillColor=none;align=center;verticalAlign=middle;whiteSpace=wrap;rounded=0;" parent="1" vertex="1">
          <mxGeometry x="250" y="280" width="40" height="20" as="geometry" />
        </mxCell>
        <mxCell id="63LmWP-ijqn6lB4bOJ2F-9" value="" style="endArrow=none;html=1;startArrow=classic;startFill=1;dashed=1;endFill=0;" parent="1" edge="1">
          <mxGeometry width="50" height="50" relative="1" as="geometry">
            <mxPoint x="350" y="320" as="sourcePoint" />
            <mxPoint x="630" y="320" as="targetPoint" />
          </mxGeometry>
        </mxCell>
        <mxCell id="63LmWP-ijqn6lB4bOJ2F-10" value="code for login window" style="text;html=1;strokeColor=none;fillColor=none;align=center;verticalAlign=middle;whiteSpace=wrap;rounded=0;" parent="1" vertex="1">
          <mxGeometry x="425" y="300" width="135" height="20" as="geometry" />
        </mxCell>
        <mxCell id="63LmWP-ijqn6lB4bOJ2F-12" value="" style="rounded=0;whiteSpace=wrap;html=1;" parent="1" vertex="1">
          <mxGeometry x="630" y="160" width="10" height="350" as="geometry" />
        </mxCell>
        <mxCell id="63LmWP-ijqn6lB4bOJ2F-15" value="" style="rounded=0;whiteSpace=wrap;html=1;" parent="1" vertex="1">
          <mxGeometry x="340" y="310" width="10" height="90" as="geometry" />
        </mxCell>
        <mxCell id="63LmWP-ijqn6lB4bOJ2F-16" value="" style="rounded=0;whiteSpace=wrap;html=1;" parent="1" vertex="1">
          <mxGeometry x="190" y="160" width="10" height="350" as="geometry" />
        </mxCell>
        <mxCell id="63LmWP-ijqn6lB4bOJ2F-27" value="logout()" style="text;html=1;strokeColor=none;fillColor=none;align=center;verticalAlign=middle;whiteSpace=wrap;rounded=0;" parent="1" vertex="1">
          <mxGeometry x="380" y="480" width="40" height="20" as="geometry" />
        </mxCell>
        <mxCell id="63LmWP-ijqn6lB4bOJ2F-30" value="" style="endArrow=classic;html=1;" parent="1" edge="1">
          <mxGeometry width="50" height="50" relative="1" as="geometry">
            <mxPoint x="195" y="300" as="sourcePoint" />
            <mxPoint x="625" y="300" as="targetPoint" />
          </mxGeometry>
        </mxCell>
        <mxCell id="63LmWP-ijqn6lB4bOJ2F-43" style="edgeStyle=orthogonalEdgeStyle;rounded=0;orthogonalLoop=1;jettySize=auto;html=1;exitX=0.5;exitY=1;exitDx=0;exitDy=0;dashed=1;startArrow=classic;startFill=1;endArrow=none;endFill=0;" parent="1" edge="1">
          <mxGeometry relative="1" as="geometry">
            <mxPoint x="257.5000000000001" y="440" as="sourcePoint" />
            <mxPoint x="257.5000000000001" y="440" as="targetPoint" />
          </mxGeometry>
        </mxCell>
        <mxCell id="63LmWP-ijqn6lB4bOJ2F-47" value="" style="endArrow=none;html=1;startArrow=classic;startFill=1;endFill=0;" parent="1" edge="1">
          <mxGeometry width="50" height="50" relative="1" as="geometry">
            <mxPoint x="200.0000000000001" y="500" as="sourcePoint" />
            <mxPoint x="630" y="500" as="targetPoint" />
          </mxGeometry>
        </mxCell>
        <mxCell id="63LmWP-ijqn6lB4bOJ2F-63" value="" style="rounded=0;whiteSpace=wrap;html=1;" parent="1" vertex="1">
          <mxGeometry x="200" y="330" width="140" height="70" as="geometry" />
        </mxCell>
        <mxCell id="63LmWP-ijqn6lB4bOJ2F-56" value="incorrect username" style="text;html=1;strokeColor=none;fillColor=none;align=center;verticalAlign=middle;whiteSpace=wrap;rounded=0;" parent="1" vertex="1">
          <mxGeometry x="230" y="320" width="100" height="20" as="geometry" />
        </mxCell>
        <mxCell id="63LmWP-ijqn6lB4bOJ2F-54" value="" style="endArrow=classic;html=1;dashed=1;" parent="1" edge="1">
          <mxGeometry width="50" height="50" relative="1" as="geometry">
            <mxPoint x="337.5" y="344.9999999999999" as="sourcePoint" />
            <mxPoint x="197.5000000000001" y="345.14286876860115" as="targetPoint" />
          </mxGeometry>
        </mxCell>
        <mxCell id="63LmWP-ijqn6lB4bOJ2F-57" value="" style="endArrow=none;html=1;startArrow=classic;startFill=1;endFill=0;" parent="1" edge="1">
          <mxGeometry width="50" height="50" relative="1" as="geometry">
            <mxPoint x="342.5" y="359.9999999999999" as="sourcePoint" />
            <mxPoint x="203" y="360" as="targetPoint" />
          </mxGeometry>
        </mxCell>
        <mxCell id="63LmWP-ijqn6lB4bOJ2F-58" value="remains at login" style="text;html=1;strokeColor=none;fillColor=none;align=center;verticalAlign=middle;whiteSpace=wrap;rounded=0;" parent="1" vertex="1">
          <mxGeometry x="222.5" y="345" width="100" height="20" as="geometry" />
        </mxCell>
        <mxCell id="63LmWP-ijqn6lB4bOJ2F-36" value="correct username" style="text;html=1;strokeColor=none;fillColor=none;align=center;verticalAlign=middle;whiteSpace=wrap;rounded=0;" parent="1" vertex="1">
          <mxGeometry x="210" y="370" width="120" height="20" as="geometry" />
        </mxCell>
        <mxCell id="63LmWP-ijqn6lB4bOJ2F-60" value="" style="endArrow=none;html=1;dashed=1;endFill=0;" parent="1" edge="1">
          <mxGeometry width="50" height="50" relative="1" as="geometry">
            <mxPoint x="340" y="369.99999999999983" as="sourcePoint" />
            <mxPoint x="200.0000000000001" y="370.1428687686011" as="targetPoint" />
          </mxGeometry>
        </mxCell>
        <mxCell id="63LmWP-ijqn6lB4bOJ2F-33" value="" style="endArrow=classic;html=1;dashed=1;" parent="1" edge="1">
          <mxGeometry width="50" height="50" relative="1" as="geometry">
            <mxPoint x="340" y="389.99999999999994" as="sourcePoint" />
            <mxPoint x="200.0000000000001" y="390.1428687686011" as="targetPoint" />
          </mxGeometry>
        </mxCell>
        <mxCell id="63LmWP-ijqn6lB4bOJ2F-64" value="Alt" style="rounded=0;whiteSpace=wrap;html=1;" parent="1" vertex="1">
          <mxGeometry x="200" y="320" width="30" height="15" as="geometry" />
        </mxCell>
        <mxCell id="mxKYyXqiPL_wZjhyVoeH-2" value="" style="endArrow=none;html=1;startArrow=classic;startFill=1;endFill=0;" edge="1" parent="1">
          <mxGeometry width="50" height="50" relative="1" as="geometry">
            <mxPoint x="490" y="410" as="sourcePoint" />
            <mxPoint x="630" y="409.65999999999997" as="targetPoint" />
          </mxGeometry>
        </mxCell>
        <mxCell id="63LmWP-ijqn6lB4bOJ2F-49" value="brings to home page window" style="text;html=1;strokeColor=none;fillColor=none;align=center;verticalAlign=middle;whiteSpace=wrap;rounded=0;" parent="1" vertex="1">
          <mxGeometry x="257.5" y="400" width="167.5" height="20" as="geometry" />
        </mxCell>
        <mxCell id="mxKYyXqiPL_wZjhyVoeH-4" value="Login window" style="rounded=0;whiteSpace=wrap;html=1;" vertex="1" parent="1">
          <mxGeometry x="302.5" y="110" width="85" height="60" as="geometry" />
        </mxCell>
        <mxCell id="mxKYyXqiPL_wZjhyVoeH-5" value="main menu window" style="rounded=0;whiteSpace=wrap;html=1;" vertex="1" parent="1">
          <mxGeometry x="440" y="110" width="90" height="60" as="geometry" />
        </mxCell>
        <mxCell id="mxKYyXqiPL_wZjhyVoeH-7" value="" style="rounded=0;whiteSpace=wrap;html=1;" vertex="1" parent="1">
          <mxGeometry x="480" y="410" width="10" height="50" as="geometry" />
        </mxCell>
        <mxCell id="mxKYyXqiPL_wZjhyVoeH-9" value="" style="endArrow=none;dashed=1;html=1;" edge="1" parent="1">
          <mxGeometry width="50" height="50" relative="1" as="geometry">
            <mxPoint x="484.66" y="410" as="sourcePoint" />
            <mxPoint x="484.65999999999997" y="170" as="targetPoint" />
          </mxGeometry>
        </mxCell>
        <mxCell id="mxKYyXqiPL_wZjhyVoeH-10" value="code for main menu window" style="text;html=1;strokeColor=none;fillColor=none;align=center;verticalAlign=middle;whiteSpace=wrap;rounded=0;" vertex="1" parent="1">
          <mxGeometry x="500" y="410" width="120" height="20" as="geometry" />
        </mxCell>
        <mxCell id="mxKYyXqiPL_wZjhyVoeH-11" value="" style="endArrow=classic;html=1;startArrow=none;startFill=0;endFill=1;dashed=1;" edge="1" parent="1">
          <mxGeometry width="50" height="50" relative="1" as="geometry">
            <mxPoint x="480" y="420" as="sourcePoint" />
            <mxPoint x="200.0000000000001" y="420.30999999999995" as="targetPoint" />
          </mxGeometry>
        </mxCell>
        <mxCell id="mxKYyXqiPL_wZjhyVoeH-13" value="" style="endArrow=classic;html=1;startArrow=none;startFill=0;endFill=1;dashed=1;" edge="1" parent="1">
          <mxGeometry width="50" height="50" relative="1" as="geometry">
            <mxPoint x="200.0000000000001" y="480" as="sourcePoint" />
            <mxPoint x="630" y="480" as="targetPoint" />
          </mxGeometry>
        </mxCell>
        <mxCell id="mxKYyXqiPL_wZjhyVoeH-15" value="clicks logout button" style="text;html=1;strokeColor=none;fillColor=none;align=center;verticalAlign=middle;whiteSpace=wrap;rounded=0;" vertex="1" parent="1">
          <mxGeometry x="340" y="460" width="120" height="20" as="geometry" />
        </mxCell>
        <mxCell id="mxKYyXqiPL_wZjhyVoeH-16" value="" style="endArrow=classic;html=1;dashed=1;" edge="1" parent="1">
          <mxGeometry width="50" height="50" relative="1" as="geometry">
            <mxPoint x="352.5" y="399.31" as="sourcePoint" />
            <mxPoint x="632.5" y="399.31" as="targetPoint" />
          </mxGeometry>
        </mxCell>
        <mxCell id="mxKYyXqiPL_wZjhyVoeH-17" value="load main menu window function" style="edgeLabel;html=1;align=center;verticalAlign=middle;resizable=0;points=[];" vertex="1" connectable="0" parent="mxKYyXqiPL_wZjhyVoeH-16">
          <mxGeometry x="-0.3011" relative="1" as="geometry">
            <mxPoint x="34.57" y="-9.31" as="offset" />
          </mxGeometry>
        </mxCell>
      </root>
    </mxGraphModel>
  </diagram>
</mxfile>
